<svg xmlns="http://www.w3.org/2000/svg" viewBox="0 0 100 100">
  <rect width="100" height="100" rx="24" fill="#1E3A2F" />
  <g stroke="#F5F1E8" stroke-width="3" stroke-linecap="round" stroke-linejoin="round">
    <path d="M50 84 L50 32" />
    <path d="M50 32 C44 26 44 18 50 13 C56 18 56 26 50 32 Z" fill="#F5F1E8" stroke="none" />
    <path d="M50 70 C41 70 35 64 33 55 C43 54 50 60 50 70 Z" />
    <path d="M50 70 C59 70 65 64 67 55 C57 54 50 60 50 70 Z" />
    <path d="M50 56 C42 56 37 51 35 43 C44 43 50 48 50 56 Z" />
    <path d="M50 56 C58 56 63 51 65 43 C56 43 50 48 50 56 Z" />
  </g>
</svg>
