<svg version="1.1" id="Layer_1" xmlns="http://www.w3.org/2000/svg" xmlns:xlink="http://www.w3.org/1999/xlink" x="0px" y="0px"
	 width="100%" viewBox="0 0 1024 1024" enable-background="new 0 0 1024 1024" xml:space="preserve">
<path fill="#000000" opacity="1.000000" stroke="none" 
	d="
M282.201050,532.265503 
	C283.904144,528.228516 285.309998,524.475952 287.021057,520.868164 
	C289.644073,515.337585 293.530457,513.029541 297.888855,514.106567 
	C302.287567,515.193542 304.908508,519.006531 304.741608,525.011230 
	C304.524292,532.828186 303.897034,540.632996 303.514038,548.446350 
	C303.311584,552.577576 302.752289,556.710510 304.864868,560.666687 
	C307.867950,566.290466 312.343384,568.632019 318.501556,566.993591 
	C330.089233,563.910583 337.419983,555.564636 343.394806,545.890869 
	C346.720062,540.507019 349.173218,534.695801 349.959747,528.229797 
	C350.522644,523.602356 353.871338,521.362793 358.037262,522.120789 
	C362.286682,522.893860 364.163849,525.887573 362.972687,530.798889 
	C361.236603,537.956909 359.865570,545.140625 360.390076,552.531311 
	C360.840027,558.871582 362.987946,564.341675 369.491547,566.792847 
	C375.381134,569.012756 380.669312,567.398987 385.282532,563.471313 
	C390.042389,559.418701 390.623657,553.979187 389.351807,548.355652 
	C382.482391,517.982239 384.572693,488.176025 394.730133,458.845551 
	C397.954742,449.534149 401.808777,440.492676 407.177826,432.196167 
	C410.283783,427.396637 414.143219,423.253235 419.357544,420.623810 
	C429.179596,415.670868 439.299561,419.850006 442.321472,430.425049 
	C445.811768,442.639160 445.764252,455.040955 443.790283,467.558044 
	C439.083374,497.404755 427.120209,524.271179 410.667053,549.330078 
	C405.519897,557.169495 406.704163,561.595886 415.136780,565.987000 
	C422.595581,569.871033 429.926056,569.265137 437.168823,565.564636 
	C444.911926,561.608521 450.683472,555.341675 456.122009,548.781921 
	C459.173309,545.101624 458.888580,540.307373 459.577393,535.926331 
	C463.504150,510.950806 467.292603,485.953552 471.114349,460.961578 
	C472.647552,450.935303 474.204865,440.912109 475.638702,430.871460 
	C476.541656,424.548859 478.545471,422.133392 482.744385,422.761261 
	C487.131439,423.417297 488.964325,426.793182 488.020081,432.860657 
	C484.566528,455.052795 481.039673,477.233582 477.584167,499.425446 
	C475.766937,511.095947 473.968018,522.770447 472.335083,534.467468 
	C472.014679,536.762634 470.701904,540.249451 473.766083,541.091248 
	C477.111816,542.010376 477.136414,538.108887 477.927002,536.049866 
	C482.143585,525.067749 488.479309,515.673828 497.869080,508.475220 
	C505.464233,502.652466 512.196594,502.051086 518.522156,506.536530 
	C524.293823,510.629211 526.500061,519.318054 523.636719,527.341736 
	C519.619934,538.597656 511.454987,546.183044 501.459076,552.138428 
	C499.258514,553.449463 495.675232,554.046814 495.832031,557.117310 
	C495.989746,560.205750 499.493927,561.119873 501.888855,562.498840 
	C518.060791,571.810059 538.266785,565.920898 551.988586,554.600464 
	C563.156433,545.387085 565.949524,532.695679 567.604065,519.513977 
	C571.021606,492.284760 574.142273,465.018280 577.372253,437.765594 
	C577.842102,433.800934 578.120850,429.810120 578.703979,425.863342 
	C579.412231,421.069305 582.130554,419.170013 587.151917,419.662842 
	C591.646301,420.103973 593.853882,422.609100 593.191956,427.599304 
	C591.594849,439.639221 589.719543,451.643250 587.873230,463.648926 
	C584.407715,486.182953 580.871643,508.706146 577.411743,531.241028 
	C577.194946,532.653015 577.383545,534.127136 577.383545,535.957703 
	C579.848145,535.163513 580.195801,533.216553 580.971069,531.706360 
	C583.863159,526.072815 586.654297,520.388611 590.431091,515.261902 
	C592.526184,512.418030 594.877991,509.848145 597.915283,507.997253 
	C607.951599,501.881134 620.895508,506.359406 623.399353,517.709839 
	C628.086243,538.957214 624.483765,558.555481 608.374939,574.348145 
	C601.655823,580.935486 593.707886,584.747559 583.880920,580.466858 
	C580.508606,578.997803 576.752625,578.863770 573.051697,579.083496 
	C568.162231,579.373962 565.565430,576.870789 564.931458,572.201721 
	C564.378235,568.127380 563.983948,564.031494 563.530457,560.041870 
	C560.603455,559.151489 559.682495,561.396912 558.278992,562.597595 
	C545.261841,573.733582 530.496338,580.313904 513.082031,579.285034 
	C501.273468,578.587402 492.214050,572.762146 486.140137,562.667175 
	C481.522980,554.993408 483.616608,548.813538 492.021637,545.475952 
	C500.375458,542.158752 507.086578,537.053223 511.830750,529.414551 
	C512.530212,528.288330 513.121460,527.087341 513.680359,525.882690 
	C515.273682,522.448486 514.787598,519.381836 511.852722,516.882568 
	C508.951996,514.412292 506.211853,515.776489 503.622528,517.473328 
	C496.738556,521.984497 492.002411,528.473083 488.082184,535.471008 
	C481.080994,547.968750 474.274872,560.595398 470.970825,574.728210 
	C470.707489,575.854675 470.284180,576.969238 469.768311,578.006226 
	C468.307159,580.943359 466.144379,582.989441 462.622314,581.968018 
	C459.277618,580.998108 458.004364,578.271729 458.095917,575.001648 
	C458.156097,572.851440 458.681183,570.717712 458.920197,568.567871 
	C459.079285,567.137390 459.803253,565.365845 457.981812,564.577454 
	C456.317017,563.856873 455.255554,565.346436 454.132477,566.296387 
	C452.860504,567.372253 451.614044,568.478455 450.336670,569.547729 
	C434.448029,582.847900 420.090393,583.636963 402.867981,572.162415 
	C396.710907,568.060242 395.554810,568.128784 389.799194,572.937195 
	C375.596680,584.802368 359.882019,581.368774 351.694122,564.611328 
	C348.292572,557.649780 347.733948,557.627319 343.000824,563.632263 
	C337.080292,571.143677 329.787781,576.760376 320.405853,579.296021 
	C308.818970,582.427612 299.210754,577.503540 294.597992,566.348755 
	C291.736420,559.428711 291.949707,552.388916 293.147980,545.242981 
	C293.526733,542.984375 294.073273,540.730896 292.536560,538.653809 
	C289.855011,539.195007 289.998962,541.404175 289.393433,542.963867 
	C285.531128,552.912354 281.644348,562.839478 275.465790,571.661499 
	C273.178955,574.926819 270.521362,577.808777 266.104065,577.106384 
	C261.460144,576.368042 260.412506,572.405518 259.574677,568.616638 
	C257.908722,561.083130 257.482452,553.458679 258.316162,545.771118 
	C258.631989,542.858704 259.050903,539.921753 258.207275,536.838257 
	C255.152069,537.232239 255.008484,539.533264 254.314194,541.200073 
	C250.279495,550.886414 246.547623,560.709473 240.861115,569.614197 
	C238.783737,572.867249 236.463425,575.927246 233.337036,578.225281 
	C227.719177,582.354614 222.391068,580.520447 220.841614,573.772583 
	C218.917007,565.391052 219.257278,556.864014 220.288666,548.421387 
	C221.248611,540.563538 221.478073,540.617981 214.052536,538.314575 
	C211.292130,537.458252 210.573730,535.384644 211.271927,532.790100 
	C212.101639,529.706787 213.549194,526.878906 215.391830,524.283020 
	C217.212402,521.718323 219.526199,519.811218 222.918900,520.326904 
	C226.248886,520.833069 228.226410,523.151672 229.158569,526.159851 
	C231.564240,533.923157 231.707520,541.878418 230.780823,549.898804 
	C230.351669,553.612793 229.553818,557.321533 229.944839,561.289307 
	C233.120529,561.548218 233.829544,559.180969 234.812592,557.458801 
	C239.778748,548.759094 243.590500,539.509155 247.552078,530.331055 
	C248.605545,527.890381 249.671539,525.421570 251.055222,523.163879 
	C253.970108,518.407898 258.199402,516.634949 262.899628,518.028442 
	C267.963715,519.529785 270.121674,523.366699 270.053619,528.267395 
	C269.942719,536.254517 269.350159,544.233887 269.087250,552.220703 
	C269.019867,554.268616 268.299255,556.559998 271.231689,559.252869 
	C275.898895,550.491882 278.223450,541.210693 282.201050,532.265503 
M417.703461,438.172699 
	C400.215302,471.067810 393.141449,505.793610 398.400116,543.407104 
	C402.178223,542.093567 403.239777,539.510193 404.561157,537.347046 
	C413.447998,522.799011 420.678558,507.482483 425.369232,491.051117 
	C430.101318,474.474762 432.634918,457.601593 432.002014,440.305908 
	C431.857452,436.354614 431.121979,432.863373 426.787079,431.701080 
	C422.493927,430.550018 420.472565,433.631256 418.556946,436.666626 
	C418.379669,436.947479 418.235321,437.249115 417.703461,438.172699 
M583.659302,551.298035 
	C582.792175,555.916138 582.613281,560.579224 583.475342,565.183105 
	C584.641785,571.412109 589.757812,573.496094 595.051880,570.093323 
	C606.707581,562.601685 616.968323,539.111816 614.621460,525.293030 
	C613.399231,518.096375 608.698547,515.876709 602.483398,519.544617 
	C600.018311,520.999451 597.960388,522.878723 596.166870,525.112183 
	C590.129272,532.630737 586.168945,541.139038 583.659302,551.298035 
z"/>
<path fill="#000000" opacity="1.000000" stroke="none" 
	d="
M625.147095,313.779510 
	C612.719604,292.282166 599.082642,271.899048 589.288879,249.325836 
	C581.982056,232.484543 575.799133,215.286438 570.833252,197.631851 
	C568.999268,191.111618 568.516724,190.854095 562.224304,193.228134 
	C524.194580,207.576218 486.099121,207.676773 448.006592,193.575562 
	C444.457489,192.261734 442.713074,192.940018 441.818237,196.547501 
	C431.320679,238.866531 410.006683,276.181580 387.468964,312.841919 
	C377.954620,328.318207 370.977356,344.724548 365.679321,361.978424 
	C364.539520,365.690338 364.171356,369.444489 364.176666,373.306824 
	C364.213806,400.298615 364.190979,427.290466 364.182800,454.282318 
	C364.182312,455.948029 364.280548,457.629181 364.094879,459.276337 
	C363.656952,463.160828 361.080780,464.432343 357.798187,462.311798 
	C354.485260,460.171631 352.804047,456.957001 352.799011,453.033142 
	C352.762238,424.375671 352.466400,395.713013 352.941376,367.063416 
	C353.104797,357.208069 357.218384,347.970734 361.032593,338.888397 
	C369.523834,318.669373 381.872803,300.593628 392.715820,281.677277 
	C409.077789,253.132919 423.648895,223.810089 431.124939,191.458328 
	C431.930939,187.970657 431.617310,184.930801 429.927643,181.858902 
	C422.128235,167.679306 422.352448,152.890732 426.514771,137.749725 
	C427.804596,133.057755 430.967438,130.050140 434.676117,127.397690 
	C449.844452,116.549408 467.139496,111.307518 485.334259,108.990257 
	C504.953766,106.491554 524.577087,106.782738 543.894836,111.636574 
	C557.936157,115.164650 571.122742,120.505302 581.756714,130.844742 
	C585.534546,134.517960 587.562012,138.696945 587.334412,144.163330 
	C587.022766,151.648407 587.145874,159.156952 587.264038,166.652588 
	C587.335266,171.171921 586.326599,175.199905 583.333313,178.688248 
	C580.395996,182.111389 579.981506,185.851852 581.028931,190.332962 
	C590.370483,230.299545 609.174194,266.006409 630.194153,300.762146 
	C637.684937,313.147827 645.470581,325.368134 650.805481,338.960419 
	C657.441772,355.868286 659.161804,373.505280 659.104187,391.398163 
	C659.016296,418.717712 658.632141,446.036255 658.415161,473.355560 
	C658.391479,476.339111 658.244080,479.112000 654.716003,480.102203 
	C650.585266,481.261597 647.554077,479.242126 647.357727,474.519897 
	C647.033081,466.714783 647.144897,458.890198 647.130676,451.073730 
	C647.090698,429.080566 646.449341,407.064026 647.260254,385.101562 
	C647.895203,367.903320 643.778259,352.146118 636.905212,336.779388 
	C633.435730,329.022461 629.698364,321.397095 625.147095,313.779510 
M457.896637,127.356239 
	C452.668121,129.559052 447.602417,132.070068 442.918762,135.299103 
	C438.363770,138.439453 435.773743,142.540863 436.024567,148.316467 
	C436.277405,154.137238 436.237122,159.971527 436.284729,165.800232 
	C436.322968,170.481155 438.291412,173.958420 442.107605,176.761871 
	C449.350189,182.082382 457.371826,185.463058 466.030792,187.651291 
	C483.181458,191.985474 500.644562,192.516403 518.125671,191.519806 
	C531.099915,190.780121 543.895752,188.451294 556.105896,183.611755 
	C572.362000,177.168564 574.855103,172.232620 575.944092,154.971207 
	C576.833374,140.875366 570.677551,133.067169 558.483887,128.395569 
	C557.396362,127.978912 556.349670,127.446739 555.246643,127.080872 
	C523.039246,116.397896 490.833130,117.077301 457.896637,127.356239 
z"/>
<path fill="#000000" opacity="1.000000" stroke="none" 
	d="
M425.426605,843.723206 
	C386.746887,828.597656 363.730133,800.683167 355.464233,760.600952 
	C353.416931,750.673401 352.714539,740.477966 352.701111,730.308594 
	C352.644836,687.654846 352.670502,645.001038 352.669556,602.347229 
	C352.669525,601.348022 352.616272,600.336243 352.747803,599.351746 
	C353.272736,595.423706 355.248291,592.595276 359.468781,592.772156 
	C363.681458,592.948608 364.186737,596.319031 364.197021,599.684875 
	C364.247498,616.179932 364.307983,632.674988 364.311249,649.170044 
	C364.317047,678.493835 363.940948,707.822632 364.373718,737.139771 
	C364.734528,761.580566 371.542267,784.079102 387.244110,803.386353 
	C402.758057,822.462524 423.228363,833.663696 446.793457,838.438232 
	C484.860443,846.150940 523.261719,846.427551 561.407166,838.751282 
	C593.341919,832.324829 617.951965,815.360840 633.269287,785.899902 
	C640.735657,771.539246 644.082458,756.171204 644.651184,740.255920 
	C646.144348,698.467957 644.101379,656.657104 645.041809,614.859070 
	C645.165344,609.366150 645.160645,603.868591 645.389587,598.380432 
	C645.508728,595.525024 646.549377,593.044434 649.936401,592.812805 
	C653.205933,592.589233 655.218445,594.338867 656.340332,597.316467 
	C657.248413,599.726501 657.158203,602.223328 657.134521,604.721191 
	C656.881836,631.373718 656.255432,658.029785 656.509827,684.677429 
	C656.665710,700.998718 656.804077,717.298462 656.346619,733.618103 
	C655.612610,759.807861 650.017151,784.336426 634.312378,806.017212 
	C619.208435,826.868530 598.998352,840.001160 574.575562,847.115967 
	C543.889954,856.055176 512.464722,856.361816 480.939301,854.640686 
	C462.099182,853.612061 443.577148,850.490051 425.426605,843.723206 
z"/>
<path fill="#000000" opacity="1.000000" stroke="none" 
	d="
M732.621948,499.570435 
	C740.777466,497.322266 743.981323,500.355927 742.133545,508.371490 
	C741.405273,511.530579 742.441223,512.826721 745.468689,512.846252 
	C748.799438,512.867676 752.135010,512.679504 755.460938,512.797302 
	C762.696899,513.053467 765.756897,517.224548 763.552368,524.120605 
	C761.146240,531.647522 759.822754,539.308350 759.850525,547.194092 
	C759.858704,549.511841 759.948181,551.869080 760.372131,554.138855 
	C762.459229,565.312500 771.051270,568.940613 780.278259,562.319519 
	C790.093994,555.275940 796.758362,545.494690 802.656311,535.150818 
	C803.316040,533.993896 803.887390,532.783325 804.596558,531.658691 
	C805.797852,529.753662 807.508118,528.799927 809.685120,529.803772 
	C811.787292,530.773254 812.467163,532.649902 811.832092,534.822754 
	C810.424744,539.637451 808.367126,544.204834 805.926453,548.565979 
	C800.260986,558.689331 793.746582,568.093689 783.171387,573.807922 
	C768.657410,581.650574 752.427673,574.807007 747.832947,558.940125 
	C745.613586,551.275818 745.301514,543.570068 746.749695,535.711548 
	C747.200500,533.265503 749.597717,530.076477 745.419006,528.438965 
	C741.544556,526.920715 736.396790,528.552368 734.395020,531.991150 
	C733.144348,534.139709 732.280518,536.511169 731.206787,538.765381 
	C725.440674,550.870300 718.898804,562.413818 708.123474,570.934448 
	C704.556274,573.755188 700.643616,575.883118 696.360535,577.393799 
	C687.156921,580.639954 679.751282,578.142151 674.291077,570.008972 
	C672.931152,567.983337 672.329468,565.367249 669.944031,564.058899 
	C667.692810,564.197571 667.075256,566.095093 666.012329,567.515259 
	C664.421021,569.641479 662.968628,571.918884 661.114685,573.793274 
	C651.749268,583.262085 640.281738,581.051392 634.751343,568.783325 
	C630.887756,560.212830 630.939819,551.278931 632.780884,542.326294 
	C635.350342,529.830933 640.276367,518.488281 650.310913,510.034668 
	C657.402405,504.060425 666.056946,503.268433 674.081726,507.603394 
	C679.600708,510.584717 682.034058,515.151550 680.698486,521.276672 
	C679.679077,525.951782 679.549805,530.345947 681.152100,534.948425 
	C682.793579,539.663147 681.627197,544.525024 680.719727,549.264160 
	C679.604187,555.089294 680.369019,560.297119 685.469604,564.002686 
	C690.674133,567.783875 695.893066,566.433716 700.902405,563.478943 
	C709.134705,558.622925 714.282043,551.033569 718.314148,542.719177 
	C723.563171,531.895081 727.753601,520.704041 728.120361,508.420654 
	C728.221313,505.038849 729.188171,501.812836 732.621948,499.570435 
M664.774780,551.265259 
	C668.951599,542.578064 671.701782,533.563171 670.506958,523.789612 
	C670.096802,520.434326 669.105896,517.042847 665.321106,515.933105 
	C661.954895,514.946045 659.636169,517.211365 657.492737,519.299622 
	C650.041687,526.559204 646.491272,535.818176 644.299805,545.709656 
	C643.177490,550.775024 642.472046,555.916199 644.094482,561.006287 
	C646.103210,567.308167 650.359192,568.613342 655.408997,564.376770 
	C659.420776,561.010986 662.232300,556.664978 664.774780,551.265259 
z"/>
<path fill="#000000" opacity="1.000000" stroke="none" 
	d="
M359.661713,510.056946 
	C355.835815,511.902863 352.512146,511.902039 349.841736,508.820709 
	C347.119934,505.680115 347.209656,502.136475 349.210663,498.673920 
	C351.237946,495.165894 354.195007,492.791901 358.447693,493.102051 
	C363.221100,493.450226 366.049896,498.543640 364.521881,503.517487 
	C363.714355,506.145905 362.246521,508.266266 359.661713,510.056946 
z"/>
<path fill="#000000" opacity="1.000000" stroke="none" 
	d="
M487.657166,156.341690 
	C504.096466,157.434204 520.025696,157.382278 535.730164,153.537766 
	C537.175232,153.184006 538.680603,152.917603 540.161316,152.900223 
	C543.674316,152.858978 545.807251,154.659027 546.284363,158.162872 
	C546.764465,161.688339 544.758362,163.337097 541.597778,164.055176 
	C529.566406,166.788757 517.383606,168.818390 505.062286,168.834091 
	C484.255188,168.860626 464.032959,165.229919 444.684204,157.305023 
	C441.650543,156.062500 438.986694,154.597015 438.429321,150.895294 
	C437.639679,145.650955 440.498566,143.047287 445.398193,145.112946 
	C458.834137,150.777527 472.796783,154.333252 487.657166,156.341690 
z"/>
</svg>